<mxfile host="app.diagrams.net" modified="2022-12-20T13:55:23.548Z" agent="5.0 (Windows NT 10.0; Win64; x64) AppleWebKit/537.36 (KHTML, like Gecko) Chrome/108.0.0.0 Safari/537.36" etag="NYVMy_lHQEUEHwtljgos" version="20.7.4" type="github">
  <diagram id="kgpKYQtTHZ0yAKxKKP6v" name="Page-1">
    <mxGraphModel dx="1050" dy="499" grid="1" gridSize="10" guides="1" tooltips="1" connect="1" arrows="1" fold="1" page="1" pageScale="1" pageWidth="850" pageHeight="1100" math="0" shadow="0">
      <root>
        <mxCell id="0" />
        <mxCell id="1" parent="0" />
        <mxCell id="3nuBFxr9cyL0pnOWT2aG-7" value="Error message" style="verticalAlign=bottom;endArrow=open;dashed=1;endSize=8;exitX=0;exitY=0.95;shadow=0;strokeWidth=1;" parent="1" edge="1">
          <mxGeometry relative="1" as="geometry">
            <mxPoint x="177" y="272.9999999999998" as="targetPoint" />
            <mxPoint x="347" y="272.9999999999998" as="sourcePoint" />
          </mxGeometry>
        </mxCell>
        <mxCell id="3nuBFxr9cyL0pnOWT2aG-8" value="visit" style="verticalAlign=bottom;endArrow=block;entryX=0;entryY=0;shadow=0;strokeWidth=1;" parent="1" edge="1">
          <mxGeometry y="1" relative="1" as="geometry">
            <mxPoint x="175" y="161.0000000000001" as="sourcePoint" />
            <mxPoint x="345" y="161.0000000000001" as="targetPoint" />
            <mxPoint as="offset" />
          </mxGeometry>
        </mxCell>
        <mxCell id="3nuBFxr9cyL0pnOWT2aG-9" value="login form" style="verticalAlign=bottom;endArrow=block;entryX=1;entryY=0;shadow=0;strokeWidth=1;" parent="1" edge="1">
          <mxGeometry relative="1" as="geometry">
            <mxPoint x="345" y="200" as="sourcePoint" />
            <mxPoint x="180" y="200" as="targetPoint" />
          </mxGeometry>
        </mxCell>
        <mxCell id="j1GF_HtscNpepFCm4E48-1" value="Admin" style="shape=umlActor;verticalLabelPosition=bottom;verticalAlign=top;html=1;outlineConnect=0;" vertex="1" parent="1">
          <mxGeometry x="140" y="60" width="30" height="60" as="geometry" />
        </mxCell>
        <mxCell id="j1GF_HtscNpepFCm4E48-2" value="" style="endArrow=none;dashed=1;html=1;rounded=0;" edge="1" parent="1">
          <mxGeometry width="50" height="50" relative="1" as="geometry">
            <mxPoint x="160" y="780" as="sourcePoint" />
            <mxPoint x="160" y="150" as="targetPoint" />
            <Array as="points">
              <mxPoint x="160" y="240" />
            </Array>
          </mxGeometry>
        </mxCell>
        <mxCell id="j1GF_HtscNpepFCm4E48-3" value="Desktop app System" style="rounded=0;whiteSpace=wrap;html=1;" vertex="1" parent="1">
          <mxGeometry x="310" y="70" width="100" height="50" as="geometry" />
        </mxCell>
        <mxCell id="j1GF_HtscNpepFCm4E48-4" value="" style="endArrow=none;dashed=1;html=1;rounded=0;" edge="1" parent="1">
          <mxGeometry width="50" height="50" relative="1" as="geometry">
            <mxPoint x="360" y="790" as="sourcePoint" />
            <mxPoint x="360" y="140" as="targetPoint" />
          </mxGeometry>
        </mxCell>
        <mxCell id="j1GF_HtscNpepFCm4E48-5" value="Bookstore server" style="rounded=0;whiteSpace=wrap;html=1;" vertex="1" parent="1">
          <mxGeometry x="510" y="70" width="100" height="50" as="geometry" />
        </mxCell>
        <mxCell id="j1GF_HtscNpepFCm4E48-6" value="" style="endArrow=none;dashed=1;html=1;rounded=0;" edge="1" parent="1">
          <mxGeometry width="50" height="50" relative="1" as="geometry">
            <mxPoint x="560" y="790" as="sourcePoint" />
            <mxPoint x="560" y="140" as="targetPoint" />
          </mxGeometry>
        </mxCell>
        <mxCell id="j1GF_HtscNpepFCm4E48-8" value="login" style="verticalAlign=bottom;endArrow=block;entryX=0;entryY=0;shadow=0;strokeWidth=1;" edge="1" parent="1">
          <mxGeometry y="1" relative="1" as="geometry">
            <mxPoint x="175" y="237.0000000000001" as="sourcePoint" />
            <mxPoint x="345" y="237.0000000000001" as="targetPoint" />
            <mxPoint as="offset" />
          </mxGeometry>
        </mxCell>
        <mxCell id="j1GF_HtscNpepFCm4E48-9" value="" style="endArrow=classic;html=1;rounded=0;" edge="1" parent="1">
          <mxGeometry width="50" height="50" relative="1" as="geometry">
            <mxPoint x="360" y="230" as="sourcePoint" />
            <mxPoint x="360" y="280" as="targetPoint" />
            <Array as="points">
              <mxPoint x="410" y="230" />
              <mxPoint x="410" y="280" />
            </Array>
          </mxGeometry>
        </mxCell>
        <mxCell id="j1GF_HtscNpepFCm4E48-10" value="&lt;span style=&quot;color: rgb(0, 0, 0); font-family: Helvetica; font-size: 11px; font-style: normal; font-variant-ligatures: normal; font-variant-caps: normal; font-weight: 400; letter-spacing: normal; orphans: 2; text-align: center; text-indent: 0px; text-transform: none; widows: 2; word-spacing: 0px; -webkit-text-stroke-width: 0px; background-color: rgb(255, 255, 255); text-decoration-thickness: initial; text-decoration-style: initial; text-decoration-color: initial; float: none; display: inline !important;&quot;&gt;inputs &lt;br&gt;validation&lt;/span&gt;" style="text;whiteSpace=wrap;html=1;" vertex="1" parent="1">
          <mxGeometry x="413" y="225" width="90" height="20" as="geometry" />
        </mxCell>
        <mxCell id="j1GF_HtscNpepFCm4E48-11" value="send Credentials (JSON)" style="verticalAlign=bottom;endArrow=block;entryX=0;entryY=0;shadow=0;strokeWidth=1;" edge="1" parent="1">
          <mxGeometry y="1" relative="1" as="geometry">
            <mxPoint x="372" y="307.0000000000001" as="sourcePoint" />
            <mxPoint x="542" y="307.0000000000001" as="targetPoint" />
            <mxPoint as="offset" />
          </mxGeometry>
        </mxCell>
        <mxCell id="j1GF_HtscNpepFCm4E48-12" value="" style="endArrow=classic;html=1;rounded=0;" edge="1" parent="1">
          <mxGeometry width="50" height="50" relative="1" as="geometry">
            <mxPoint x="560" y="295" as="sourcePoint" />
            <mxPoint x="560" y="355" as="targetPoint" />
            <Array as="points">
              <mxPoint x="610" y="295" />
              <mxPoint x="610" y="355" />
            </Array>
          </mxGeometry>
        </mxCell>
        <mxCell id="j1GF_HtscNpepFCm4E48-13" value="&lt;span style=&quot;color: rgb(0, 0, 0); font-family: Helvetica; font-size: 11px; font-style: normal; font-variant-ligatures: normal; font-variant-caps: normal; font-weight: 400; letter-spacing: normal; orphans: 2; text-align: center; text-indent: 0px; text-transform: none; widows: 2; word-spacing: 0px; -webkit-text-stroke-width: 0px; background-color: rgb(255, 255, 255); text-decoration-thickness: initial; text-decoration-style: initial; text-decoration-color: initial; float: none; display: inline !important;&quot;&gt;&lt;span style=&quot;&quot;&gt;Verify Credentials&lt;/span&gt;&amp;nbsp;&amp;amp; input validation&lt;/span&gt;" style="text;whiteSpace=wrap;html=1;" vertex="1" parent="1">
          <mxGeometry x="613" y="290" width="90" height="20" as="geometry" />
        </mxCell>
        <mxCell id="j1GF_HtscNpepFCm4E48-14" value="JWT token" style="verticalAlign=bottom;endArrow=block;entryX=1;entryY=0;shadow=0;strokeWidth=1;" edge="1" parent="1">
          <mxGeometry relative="1" as="geometry">
            <mxPoint x="540.5" y="355" as="sourcePoint" />
            <mxPoint x="375.5" y="355" as="targetPoint" />
          </mxGeometry>
        </mxCell>
        <mxCell id="j1GF_HtscNpepFCm4E48-15" value="invalid credentiials" style="verticalAlign=bottom;endArrow=open;dashed=1;endSize=8;exitX=0;exitY=0.95;shadow=0;strokeWidth=1;" edge="1" parent="1">
          <mxGeometry x="0.0235" relative="1" as="geometry">
            <mxPoint x="373" y="328.9999999999998" as="targetPoint" />
            <mxPoint x="543" y="328.9999999999998" as="sourcePoint" />
            <mxPoint as="offset" />
          </mxGeometry>
        </mxCell>
        <mxCell id="j1GF_HtscNpepFCm4E48-16" value="invalid credentiials" style="verticalAlign=bottom;endArrow=open;dashed=1;endSize=8;exitX=0;exitY=0.95;shadow=0;strokeWidth=1;" edge="1" parent="1">
          <mxGeometry relative="1" as="geometry">
            <mxPoint x="180" y="339.9999999999998" as="targetPoint" />
            <mxPoint x="350" y="339.9999999999998" as="sourcePoint" />
            <Array as="points">
              <mxPoint x="263" y="340" />
            </Array>
          </mxGeometry>
        </mxCell>
        <mxCell id="j1GF_HtscNpepFCm4E48-17" value="" style="endArrow=classic;html=1;rounded=0;" edge="1" parent="1">
          <mxGeometry width="50" height="50" relative="1" as="geometry">
            <mxPoint x="360" y="380" as="sourcePoint" />
            <mxPoint x="360" y="420" as="targetPoint" />
            <Array as="points">
              <mxPoint x="413" y="380" />
              <mxPoint x="413" y="420" />
            </Array>
          </mxGeometry>
        </mxCell>
        <mxCell id="j1GF_HtscNpepFCm4E48-18" value="&lt;font style=&quot;font-size: 10px;&quot;&gt;save token in&lt;br&gt;&amp;nbsp;localStorage&lt;/font&gt;" style="text;html=1;align=center;verticalAlign=middle;resizable=0;points=[];autosize=1;strokeColor=none;fillColor=none;" vertex="1" parent="1">
          <mxGeometry x="411" y="380" width="80" height="40" as="geometry" />
        </mxCell>
        <mxCell id="j1GF_HtscNpepFCm4E48-19" value="display Dashboard" style="verticalAlign=bottom;endArrow=block;entryX=1;entryY=0;shadow=0;strokeWidth=1;" edge="1" parent="1">
          <mxGeometry relative="1" as="geometry">
            <mxPoint x="343" y="419" as="sourcePoint" />
            <mxPoint x="178" y="419" as="targetPoint" />
          </mxGeometry>
        </mxCell>
        <mxCell id="j1GF_HtscNpepFCm4E48-20" value="perform CRUD" style="verticalAlign=bottom;endArrow=block;entryX=0;entryY=0;shadow=0;strokeWidth=1;" edge="1" parent="1">
          <mxGeometry y="1" relative="1" as="geometry">
            <mxPoint x="177" y="470.0000000000001" as="sourcePoint" />
            <mxPoint x="347" y="470.0000000000001" as="targetPoint" />
            <mxPoint as="offset" />
            <Array as="points">
              <mxPoint x="260" y="470" />
            </Array>
          </mxGeometry>
        </mxCell>
        <mxCell id="j1GF_HtscNpepFCm4E48-21" value="(request or send) data" style="verticalAlign=bottom;endArrow=block;entryX=0;entryY=0;shadow=0;strokeWidth=1;" edge="1" parent="1">
          <mxGeometry y="1" relative="1" as="geometry">
            <mxPoint x="373" y="474.0000000000001" as="sourcePoint" />
            <mxPoint x="543" y="474.0000000000001" as="targetPoint" />
            <mxPoint as="offset" />
            <Array as="points">
              <mxPoint x="456" y="474" />
            </Array>
          </mxGeometry>
        </mxCell>
        <mxCell id="j1GF_HtscNpepFCm4E48-22" value="&lt;font style=&quot;font-size: 10px;&quot;&gt;send JWT with headers&lt;/font&gt;" style="text;html=1;align=center;verticalAlign=middle;resizable=0;points=[];autosize=1;strokeColor=none;fillColor=none;" vertex="1" parent="1">
          <mxGeometry x="395" y="474" width="130" height="30" as="geometry" />
        </mxCell>
        <mxCell id="j1GF_HtscNpepFCm4E48-25" value="" style="endArrow=classic;html=1;rounded=0;" edge="1" parent="1">
          <mxGeometry width="50" height="50" relative="1" as="geometry">
            <mxPoint x="563" y="468" as="sourcePoint" />
            <mxPoint x="563" y="590" as="targetPoint" />
            <Array as="points">
              <mxPoint x="613" y="468" />
              <mxPoint x="613" y="590" />
            </Array>
          </mxGeometry>
        </mxCell>
        <mxCell id="j1GF_HtscNpepFCm4E48-26" value="Verify&lt;br&gt;&amp;nbsp;token" style="text;html=1;align=center;verticalAlign=middle;resizable=0;points=[];autosize=1;strokeColor=none;fillColor=none;" vertex="1" parent="1">
          <mxGeometry x="614" y="495" width="60" height="40" as="geometry" />
        </mxCell>
        <mxCell id="j1GF_HtscNpepFCm4E48-27" value="token expired 401" style="verticalAlign=bottom;endArrow=open;dashed=1;endSize=8;exitX=0;exitY=0.95;shadow=0;strokeWidth=1;" edge="1" parent="1">
          <mxGeometry relative="1" as="geometry">
            <mxPoint x="376" y="525.9999999999998" as="targetPoint" />
            <mxPoint x="546" y="525.9999999999998" as="sourcePoint" />
            <Array as="points">
              <mxPoint x="459" y="526" />
            </Array>
          </mxGeometry>
        </mxCell>
        <mxCell id="j1GF_HtscNpepFCm4E48-28" value="OK send data" style="verticalAlign=bottom;endArrow=block;entryX=1;entryY=0;shadow=0;strokeWidth=1;" edge="1" parent="1">
          <mxGeometry relative="1" as="geometry">
            <mxPoint x="542.5" y="593" as="sourcePoint" />
            <mxPoint x="377.5" y="593" as="targetPoint" />
          </mxGeometry>
        </mxCell>
        <mxCell id="j1GF_HtscNpepFCm4E48-29" value="forbidden access 403" style="verticalAlign=bottom;endArrow=open;dashed=1;endSize=8;exitX=0;exitY=0.95;shadow=0;strokeWidth=1;" edge="1" parent="1">
          <mxGeometry relative="1" as="geometry">
            <mxPoint x="377" y="555.9999999999998" as="targetPoint" />
            <mxPoint x="547" y="555.9999999999998" as="sourcePoint" />
            <Array as="points">
              <mxPoint x="460" y="556" />
            </Array>
          </mxGeometry>
        </mxCell>
        <mxCell id="j1GF_HtscNpepFCm4E48-30" value="" style="endArrow=classic;html=1;rounded=0;fontSize=10;" edge="1" parent="1">
          <mxGeometry width="50" height="50" relative="1" as="geometry">
            <mxPoint x="360" y="520" as="sourcePoint" />
            <mxPoint x="360" y="570" as="targetPoint" />
            <Array as="points">
              <mxPoint x="300" y="520" />
              <mxPoint x="300" y="570" />
            </Array>
          </mxGeometry>
        </mxCell>
        <mxCell id="j1GF_HtscNpepFCm4E48-31" value="delete token&lt;br&gt;from localStorage" style="text;html=1;align=center;verticalAlign=middle;resizable=0;points=[];autosize=1;strokeColor=none;fillColor=none;fontSize=10;" vertex="1" parent="1">
          <mxGeometry x="249" y="522" width="100" height="40" as="geometry" />
        </mxCell>
        <mxCell id="j1GF_HtscNpepFCm4E48-32" value="display data" style="verticalAlign=bottom;endArrow=block;entryX=1;entryY=0;shadow=0;strokeWidth=1;" edge="1" parent="1">
          <mxGeometry relative="1" as="geometry">
            <mxPoint x="345" y="625" as="sourcePoint" />
            <mxPoint x="180" y="625" as="targetPoint" />
          </mxGeometry>
        </mxCell>
        <mxCell id="j1GF_HtscNpepFCm4E48-33" value="login form" style="verticalAlign=bottom;endArrow=block;entryX=1;entryY=0;shadow=0;strokeWidth=1;" edge="1" parent="1">
          <mxGeometry relative="1" as="geometry">
            <mxPoint x="345" y="590" as="sourcePoint" />
            <mxPoint x="180" y="590" as="targetPoint" />
          </mxGeometry>
        </mxCell>
      </root>
    </mxGraphModel>
  </diagram>
</mxfile>
